<?xml version="1.0" encoding="utf-8"?>
<svg version="1.1" xmlns:xlink="http://www.w3.org/1999/xlink" width="2042px" height="645px" xmlns="http://www.w3.org/2000/svg">
  <defs>
    <linearGradient gradientUnits="userSpaceOnUse" x1="1021" y1="0" x2="1021" y2="589.63321840447" id="LinearGradient13">
      <stop id="Stop14" stop-color="#bcffb7" offset="0" />
      <stop id="Stop15" stop-color="#06d1d8" offset="1" />
    </linearGradient>
  </defs>
  <g transform="matrix(1 0 0 1 0 -32 )">
    <path d="M 41.729059803039 0  L 0.353776853779428 645  C 0.353776853779428 645  55.8821816598619 466.351134204164  99.4112959112972 361.213292117464  C 114.980880012732 323.60737013254  198.312160073645 158.529215544058  324.538237332353 130.399581780161  C 493.562643043739 92.7322888318362  669.404877044871 159.089333817251  759.475663446252 165.584598599872  C 855.709935375692 172.524330141229  1038.24518101659 85.5979623580594  1096.60419469243 86.9641100784841  C 1255.82587217346 90.6913891744119  1347.36955281073 195.326082578277  1488.88029432147 154.276896288615  C 1533.62710220904 141.296821184529  1636.90909035256 69.3458258566357  1725.07837022543 61.9842712973906  C 1865.54859157801 50.255932357487  2041.13163863164 72.774343122102  2041.13163863164 72.774343122102  L 2041.13163863164 0  L 41.729059803039 0  Z " fill-rule="nonzero" fill="url(#LinearGradient13)" stroke="none" transform="matrix(1 0 0 1 0 32 )" />
  </g>
</svg>