<?xml version="1.0" encoding="utf-8"?>
<svg version="1.1" xmlns:xlink="http://www.w3.org/1999/xlink" width="1200px" height="387px" xmlns="http://www.w3.org/2000/svg">
  <defs>
    <linearGradient gradientUnits="userSpaceOnUse" x1="600" y1="0" x2="600" y2="353.779931042682" id="LinearGradient7">
      <stop id="Stop8" stop-color="#bcffb7" offset="0" />
      <stop id="Stop9" stop-color="#06d1d8" offset="1" />
    </linearGradient>
  </defs>
  <g transform="matrix(1 0 0 1 0 -23 )">
    <path d="M 24.5224641349887 0  L 0.207900207901721 387  C 0.207900207901721 387  32.8396758040325 279.810680522499  58.4199584199592 216.727975270478  C 67.5695670985693 194.164422079524  116.539956948273 95.1175293264348  190.717867188454 78.2397490680966  C 290.046607077614 55.6393732991017  393.38190619679 95.4536002903504  446.31282866577 99.3507591599231  C 502.865779848595 103.514598084737  610.134288550397 51.3587774148356  644.429497370674 52.1784660470905  C 737.997574244935 54.4148335046472  791.794056499939 117.195649546966  874.954139660023 92.5661377731688  C 901.250011092479 84.7780927107172  961.944617249303 41.6074955139814  1013.7581019934 37.1905627784344  C 1096.30671395377 30.1535594144922  1199.4896994897 43.6646058732612  1199.4896994897 43.6646058732612  L 1199.4896994897 0  L 24.5224641349887 0  Z " fill-rule="nonzero" fill="url(#LinearGradient7)" stroke="none" transform="matrix(1 0 0 1 0 23 )" />
  </g>
</svg>