<?xml version="1.0" encoding="utf-8"?>
<svg version="1.1" xmlns:xlink="http://www.w3.org/1999/xlink" width="272px" height="107px" xmlns="http://www.w3.org/2000/svg">
  <defs>
    <mask fill="white" id="clip35">
      <path d="M 0 93.625  L 0 13.375  C 0 5.88500000000012  4.2742857142858 0  9.71428571428571 0  L 146.074074074069 0  L 262.285714285714 0  C 267.725714285714 0  272 5.88500000000012  272 13.375  L 272 93.625  C 272 101.115  267.725714285714 107  262.285714285714 107  L 9.71428571428571 107  C 4.2742857142858 107  0 101.115  0 93.625  Z " fill-rule="evenodd" />
    </mask>
  </defs>
  <g transform="matrix(1 0 0 1 -1464 -1455 )">
    <path d="M 0 93.625  L 0 13.375  C 0 5.88500000000012  4.2742857142858 0  9.71428571428571 0  L 146.074074074069 0  L 262.285714285714 0  C 267.725714285714 0  272 5.88500000000012  272 13.375  L 272 93.625  C 272 101.115  267.725714285714 107  262.285714285714 107  L 9.71428571428571 107  C 4.2742857142858 107  0 101.115  0 93.625  Z " fill-rule="nonzero" fill="#ffffff" stroke="none" transform="matrix(1 0 0 1 1464 1455 )" />
    <path d="M 0 93.625  L 0 13.375  C 0 5.88500000000012  4.2742857142858 0  9.71428571428571 0  L 146.074074074069 0  L 262.285714285714 0  C 267.725714285714 0  272 5.88500000000012  272 13.375  L 272 93.625  C 272 101.115  267.725714285714 107  262.285714285714 107  L 9.71428571428571 107  C 4.2742857142858 107  0 101.115  0 93.625  Z " stroke-width="2" stroke="#797979" fill="none" transform="matrix(1 0 0 1 1464 1455 )" mask="url(#clip35)" />
  </g>
</svg>